<svg width="258" height="51" viewBox="0 0 258 51" fill="none" xmlns="http://www.w3.org/2000/svg">
<path fill-rule="evenodd" clip-rule="evenodd" d="M181.164 50.001C179.169 50.001 177.346 48.8864 176.454 47.1219L156.441 7.53859C155.141 4.96578 156.195 1.83728 158.796 0.550875C161.398 -0.735524 164.561 0.307311 165.862 2.88011L181.164 33.1465L196.466 2.88012C197.767 0.307314 200.93 -0.73552 203.531 0.550879C206.133 1.83728 207.187 4.96579 205.887 7.53859L185.874 47.1219C184.982 48.8864 183.159 50.001 181.164 50.001ZM10.5328 2.07138e-06C4.71569 2.07138e-06 0 4.6637 0 10.4167V39.5833C0 45.3363 4.71569 50 10.5328 50H50.5574V10.4167C50.5574 4.6637 45.8417 2.07138e-06 40.0246 2.07138e-06H10.5328ZM35.8115 20.8347H29.4918L29.4918 14.5847C29.4918 12.2835 27.6055 10.4181 25.2787 10.4181C22.9518 10.4181 21.0656 12.2835 21.0656 14.5847L21.0656 20.8347H14.7459C12.4191 20.8347 10.5328 22.7002 10.5328 25.0014C10.5328 27.3026 12.4191 29.1681 14.7459 29.1681H21.0656L21.0656 35.4181C21.0656 37.7192 22.9518 39.5847 25.2787 39.5847C27.6055 39.5847 29.4918 37.7192 29.4918 35.4181V29.1681H35.8115C38.1383 29.1681 40.0246 27.3026 40.0246 25.0014C40.0246 22.7002 38.1383 20.8347 35.8115 20.8347ZM61.0902 5.20961C61.0902 2.33312 63.448 0.00127364 66.3566 0.00127364H91.6353C93.622 0.00127364 95.4397 1.107 96.3357 2.86065C97.2317 4.6143 97.0535 6.71739 95.875 8.29918L76.7787 39.5846H91.6353C94.5438 39.5846 96.9017 41.9164 96.9017 44.7929C96.9017 47.6694 94.5438 50.0013 91.6353 50.0013H66.3566C64.3699 50.0013 62.5522 48.8955 61.6562 47.1419C60.7602 45.3882 60.9383 43.2851 62.1168 41.7034L81.2131 10.4179H66.3566C63.448 10.4179 61.0902 8.08609 61.0902 5.20961ZM135.317 2.88037C134.425 1.11587 132.601 0.00127364 130.607 0.00127364C128.612 0.00127364 126.788 1.11587 125.896 2.88037L105.884 42.4637C104.583 45.0365 105.638 48.165 108.239 49.4514C110.841 50.7378 114.004 49.695 115.305 47.1222L130.607 16.8558L145.908 47.1222C147.209 49.695 150.373 50.7378 152.974 49.4514C155.576 48.165 156.63 45.0365 155.329 42.4637L135.317 2.88037ZM236.432 2.88037C235.54 1.11587 233.716 0.00127364 231.721 0.00127364C229.727 0.00127364 227.903 1.11587 227.011 2.88037L206.999 42.4637C205.698 45.0365 206.752 48.165 209.354 49.4514C211.955 50.7378 215.119 49.695 216.419 47.1222L231.721 16.8558L247.023 47.1222C248.324 49.695 251.487 50.7378 254.089 49.4514C256.69 48.165 257.745 45.0365 256.444 42.4637L236.432 2.88037Z" fill="#0F62F4"/>
</svg>
